<svg class="icon" viewBox="0 0 1024 1024" xmlns="http://www.w3.org/2000/svg" width="48" height="48"><defs><style/></defs><path d="M512.205 1021.338c-281.6 0-510.567-228.967-510.567-510.567S230.605.41 512.205.41s510.361 228.966 510.361 510.361-228.966 510.567-510.361 510.567zm0-938.599c-236.135 0-428.032 192.103-428.032 428.032s192.102 428.032 428.032 428.032c236.134 0 428.032-192.102 428.032-428.032S748.134 82.74 512.205 82.74z"/><path d="M518.144 554.598c-22.733 0-40.96-18.432-40.96-41.164V204.595c0-22.733 18.227-41.165 40.96-41.165s40.96 18.432 40.96 41.165v308.839c0 22.732-18.227 41.164-40.96 41.164z"/><path d="M682.803 555.008H518.144c-22.733 0-41.165-18.227-41.165-40.96s18.432-40.96 41.165-40.96h164.66c22.732 0 41.164 18.227 41.164 40.96.205 22.733-18.227 40.96-41.165 40.96z"/></svg>