<?xml version="1.0" standalone="no"?><!DOCTYPE svg PUBLIC "-//W3C//DTD SVG 1.1//EN" "http://www.w3.org/Graphics/SVG/1.1/DTD/svg11.dtd"><svg t="1558083948262" class="icon" style="" viewBox="0 0 1025 1024" version="1.1" xmlns="http://www.w3.org/2000/svg" p-id="12643" xmlns:xlink="http://www.w3.org/1999/xlink" width="200.1953125" height="200"><defs><style type="text/css"></style></defs><path d="M422.774735 432.55908c4.493973 0 8.931059-1.763458 12.401089-5.176601 3.413144-3.413144 5.06283-7.907116 5.06283-12.344203l-0.113771-364.068663c0-2.218543-1.422143-4.493973-3.640687-5.404144C434.208766 44.541525 431.705794 45.110383 430.056108 46.760069L307.069163 169.348814l-164.968613-164.285984C138.914949 1.877229 134.534748 0 129.756347 0 124.92106 0 120.540859 1.991 117.355258 5.06283l-112.064885 111.609799C2.104772 119.85823 0.113771 124.181545 0.113771 129.130604c0 4.835287 1.991 9.329259 5.176601 12.457975l164.854841 163.887784L50.571413 424.651964C48.921727 426.30165 48.295984 428.804622 49.263041 431.023165c0.967057 2.218543 3.185601 3.640687 5.404144 3.640687L422.774735 432.55908 422.774735 432.55908 422.774735 432.55908zM422.774735 432.55908" p-id="12644"></path><path d="M422.43342 588.084662c4.493973 0 8.931059 1.649686 12.51486 5.176601 3.413144 3.413144 5.176601 7.907116 5.176601 12.51486l-0.113771 367.140492c0 2.218543-1.422143 4.493973-3.640687 5.404144-2.218543 0.910172-4.721515 0.341314-6.371202-1.308372l-122.986945-122.531859-164.968613 164.399756C138.801178 1022.065885 134.420977 1023.943114 129.642575 1023.943114c-4.835287 0-9.215488-1.991-12.344203-5.06283l-112.064885-111.609799C1.991 904.084884 0 899.761569 0 894.81251c0-4.835287 1.991-9.329259 5.176601-12.51486l164.74107-164.285984-119.744459-119.232487c-1.649686-1.649686-2.218543-4.152658-1.308372-6.371202 0.967057-2.218543 3.071829-3.640687 5.404144-3.640687L422.43342 588.084662 422.43342 588.084662 422.43342 588.084662zM422.43342 588.084662" p-id="12645"></path><path d="M601.509694 432.55908c-4.493973 0-8.931059-1.763458-12.344203-5.176601-3.413144-3.413144-5.06283-7.907116-5.06283-12.344203l0.113771-364.068663c0-2.218543 1.422143-4.493973 3.640687-5.404144 2.218543-0.910172 4.721515-0.341314 6.371202 1.308372l122.986945 122.531859 164.968613-164.285984C885.369479 1.877229 889.749681 0 894.584968 0c4.835287 0 9.215488 1.991 12.344203 5.06283l112.064885 111.609799c3.185601 3.185601 5.176601 7.565802 5.176601 12.51486 0 4.835287-1.991 9.329259-5.176601 12.457975l-164.968613 164.285984 119.801344 118.777401c1.649686 1.649686 2.218543 4.095772 1.308372 6.371202-0.967057 2.218543-3.185601 3.640687-5.404144 3.640687L601.509694 432.55908 601.509694 432.55908 601.509694 432.55908zM601.509694 432.55908" p-id="12646"></path><path d="M601.737237 588.084662c-4.493973 0-8.931059 1.649686-12.51486 5.176601-3.413144 3.413144-5.176601 7.907116-5.176601 12.51486l0.113771 367.140492c0 2.332315 1.422143 4.493973 3.640687 5.404144 2.218543 0.910172 4.721515 0.341314 6.371202-1.308372l122.986945-122.531859 164.968613 164.399756C885.369479 1022.065885 889.749681 1023.943114 894.584968 1023.943114s9.215488-1.991 12.344203-5.06283l112.064885-111.609799c3.185601-3.185601 5.176601-7.565802 5.176601-12.457975 0-4.835287-1.991-9.329259-5.176601-12.51486l-164.968613-164.285984 119.972002-119.232487c1.649686-1.649686 2.218543-4.152658 1.308372-6.371202-0.967057-2.218543-3.071829-3.640687-5.404144-3.640687L601.737237 588.084662 601.737237 588.084662 601.737237 588.084662zM601.737237 588.084662" p-id="12647"></path></svg>